<svg width="63" height="48" viewBox="0 0 63 48" fill="none" xmlns="http://www.w3.org/2000/svg">
<path d="M0.432617 1.43574C6.19108 0.966109 6.54364 1.27121 8.42395 7.1942C10.3043 13.1172 13.8299 24.0779 15.3576 28.8179C16.7213 33.049 16.6033 34.5763 22.5263 34.5763C28.4493 34.5763 48.2631 34.5763 57.4296 34.5763" stroke="black" stroke-width="1.5"/>
<path d="M11.7148 4.96367H56.9599C58.801 4.9245 62.2013 6.3504 61.0731 12.3674C59.9449 18.3844 58.9577 23.5704 58.6052 25.4113C57.9001 27.5267 57.9471 28.7254 52.9642 28.8194C47.9814 28.9134 28.0892 28.8586 18.766 28.8194" stroke="black" stroke-width="1.5"/>
<circle cx="23.7018" cy="43.1559" r="3.95079" stroke="black" stroke-width="1.5"/>
<circle cx="51.6715" cy="43.1559" r="3.95079" stroke="black" stroke-width="1.5"/>
</svg>
